<?xml version="1.0" encoding="utf-8"?>
<svg width="36px" height="31px" viewBox="0 0 36 31" version="1.1" xmlns:xlink="http://www.w3.org/1999/xlink" xmlns="http://www.w3.org/2000/svg">
  <desc>Created with Lunacy</desc>
  <g id="home_icon-Copy">
    <g id="Group">
      <path d="M35.3714 13.0785L18.7152 0.265986C18.2545 -0.0886619 17.6127 -0.0886619 17.152 0.265986L0.495792 13.0785C0.0637573 13.4138 -0.10784 13.9863 0.0685636 14.504C0.244967 15.0216 0.73048 15.3702 1.27735 15.3719L5.1211 15.3719L5.1211 29.4657C5.1211 30.1733 5.69474 30.7469 6.40235 30.7469L14.0899 30.7469C14.7975 30.7469 15.3711 30.1733 15.3711 29.4657L15.3711 23.0594L20.4961 23.0594L20.4961 29.4657C20.4961 30.1733 21.0697 30.7469 21.7774 30.7469L29.4649 30.7469C30.1725 30.7469 30.7461 30.1733 30.7461 29.4657L30.7461 15.3719L34.5899 15.3719C35.1367 15.3702 35.6222 15.0216 35.7986 14.504C35.975 13.9863 35.8035 13.4138 35.3714 13.0785L35.3714 13.0785Z" id="Shape" fill="#69B3FD" stroke="none" />
    </g>
  </g>
</svg>